<svg width="40" height="40" viewBox="0 0 40 40" fill="none" xmlns="http://www.w3.org/2000/svg">
<g id="Group 47">
<circle id="Oval" cx="20" cy="20" r="20" fill="#00B7B1"/>
<g id="Group 46">
<path id="70+" d="M10.3301 21L13.5469 13.9688H9.32227V12.4453H15.4688V13.582L12.2285 21H10.3301ZM22.4773 16.7168C22.4773 18.2129 22.2312 19.3203 21.7391 20.0391C21.2508 20.7578 20.4969 21.1172 19.4773 21.1172C18.4891 21.1172 17.743 20.7461 17.2391 20.0039C16.7391 19.2617 16.4891 18.166 16.4891 16.7168C16.4891 15.2051 16.7332 14.0918 17.2215 13.377C17.7098 12.6582 18.4617 12.2988 19.4773 12.2988C20.4656 12.2988 21.2117 12.6738 21.7156 13.4238C22.2234 14.1738 22.4773 15.2715 22.4773 16.7168ZM18.2879 16.7168C18.2879 17.7676 18.3777 18.5215 18.5574 18.9785C18.741 19.4316 19.0477 19.6582 19.4773 19.6582C19.8992 19.6582 20.2039 19.4277 20.3914 18.9668C20.5789 18.5059 20.6727 17.7559 20.6727 16.7168C20.6727 15.666 20.577 14.9121 20.3855 14.4551C20.198 13.9941 19.8953 13.7637 19.4773 13.7637C19.0516 13.7637 18.7469 13.9941 18.5633 14.4551C18.3797 14.9121 18.2879 15.666 18.2879 16.7168ZM25.8941 17.4141H23.6266V16.1309H25.8941V13.8457H27.1773V16.1309H29.4449V17.4141H27.1773V19.6699H25.8941V17.4141Z" fill="white"/>
<path id="Banks" d="M8.78516 24.2891H10.3984C11.1562 24.2891 11.7044 24.4023 12.043 24.6289C12.3815 24.8555 12.5508 25.2135 12.5508 25.7031C12.5508 26.0417 12.4557 26.3216 12.2656 26.543C12.0781 26.7617 11.8034 26.9036 11.4414 26.9688V27.0078C12.3086 27.1562 12.7422 27.612 12.7422 28.375C12.7422 28.8854 12.569 29.2839 12.2227 29.5703C11.8789 29.8568 11.3971 30 10.7773 30H8.78516V24.2891ZM9.44922 26.7344H10.543C11.0117 26.7344 11.349 26.6615 11.5547 26.5156C11.7604 26.3672 11.8633 26.1185 11.8633 25.7695C11.8633 25.4492 11.7487 25.2188 11.5195 25.0781C11.2904 24.9349 10.9258 24.8633 10.4258 24.8633H9.44922V26.7344ZM9.44922 27.2969V29.4336H10.6406C11.1016 29.4336 11.4479 29.3451 11.6797 29.168C11.9141 28.9883 12.0312 28.7083 12.0312 28.3281C12.0312 27.974 11.9115 27.7135 11.6719 27.5469C11.4349 27.3802 11.0729 27.2969 10.5859 27.2969H9.44922ZM16.6411 30L16.5122 29.3906H16.481C16.2674 29.6589 16.0539 29.8411 15.8404 29.9375C15.6294 30.0312 15.3651 30.0781 15.0474 30.0781C14.6229 30.0781 14.2896 29.9688 14.0474 29.75C13.8078 29.5312 13.688 29.2201 13.688 28.8164C13.688 27.9518 14.3794 27.4987 15.7622 27.457L16.4888 27.4336V27.168C16.4888 26.832 16.4159 26.5846 16.2701 26.4258C16.1268 26.2643 15.8964 26.1836 15.5786 26.1836C15.2219 26.1836 14.8182 26.293 14.3677 26.5117L14.1685 26.0156C14.3794 25.901 14.6099 25.8112 14.8599 25.7461C15.1125 25.681 15.3651 25.6484 15.6177 25.6484C16.1281 25.6484 16.5057 25.7617 16.7505 25.9883C16.9979 26.2148 17.1216 26.5781 17.1216 27.0781V30H16.6411ZM15.1763 29.543C15.5799 29.543 15.8964 29.4323 16.1255 29.2109C16.3573 28.9896 16.4732 28.6797 16.4732 28.2812V27.8945L15.8247 27.9219C15.3091 27.9401 14.9367 28.0208 14.7076 28.1641C14.481 28.3047 14.3677 28.5247 14.3677 28.8242C14.3677 29.0586 14.438 29.237 14.5786 29.3594C14.7219 29.4818 14.9211 29.543 15.1763 29.543ZM21.5245 30V27.2305C21.5245 26.8815 21.4451 26.6211 21.2862 26.4492C21.1273 26.2773 20.8786 26.1914 20.5401 26.1914C20.0922 26.1914 19.7641 26.3125 19.5557 26.5547C19.3474 26.7969 19.2432 27.1966 19.2432 27.7539V30H18.5948V25.7188H19.1221L19.2276 26.3047H19.2589C19.3917 26.0938 19.5779 25.931 19.8174 25.8164C20.057 25.6992 20.324 25.6406 20.6182 25.6406C21.1339 25.6406 21.5219 25.7656 21.7823 26.0156C22.0427 26.263 22.1729 26.6602 22.1729 27.207V30H21.5245ZM24.2828 27.8086C24.3948 27.6497 24.5654 27.4414 24.7945 27.1836L26.1773 25.7188H26.9469L25.2125 27.543L27.068 30H26.2828L24.7711 27.9766L24.2828 28.3984V30H23.6422V23.9219H24.2828V27.1445C24.2828 27.2878 24.2724 27.5091 24.2516 27.8086H24.2828ZM30.7404 28.832C30.7404 29.2305 30.5919 29.5378 30.2951 29.7539C29.9982 29.9701 29.5815 30.0781 29.0451 30.0781C28.4773 30.0781 28.0346 29.9883 27.7169 29.8086V29.207C27.9227 29.3112 28.1427 29.3932 28.3771 29.4531C28.6141 29.513 28.8419 29.543 29.0607 29.543C29.3992 29.543 29.6596 29.4896 29.8419 29.3828C30.0242 29.2734 30.1154 29.1081 30.1154 28.8867C30.1154 28.7201 30.0424 28.5781 29.8966 28.4609C29.7534 28.3411 29.4721 28.2005 29.0529 28.0391C28.6544 27.8906 28.3706 27.7617 28.2013 27.6523C28.0346 27.5404 27.9096 27.4141 27.8263 27.2734C27.7456 27.1328 27.7052 26.9648 27.7052 26.7695C27.7052 26.4206 27.8471 26.1458 28.131 25.9453C28.4148 25.7422 28.8042 25.6406 29.299 25.6406C29.7599 25.6406 30.2104 25.7344 30.6505 25.9219L30.4201 26.4492C29.9904 26.2721 29.601 26.1836 29.2521 26.1836C28.9448 26.1836 28.713 26.2318 28.5568 26.3281C28.4005 26.4245 28.3224 26.5573 28.3224 26.7266C28.3224 26.8411 28.351 26.9388 28.4083 27.0195C28.4682 27.1003 28.5633 27.1771 28.6935 27.25C28.8237 27.3229 29.0737 27.4284 29.4435 27.5664C29.9513 27.7513 30.2937 27.9375 30.4708 28.125C30.6505 28.3125 30.7404 28.5482 30.7404 28.832Z" fill="white"/>
</g>
</g>
</svg>
