<svg xmlns="http://www.w3.org/2000/svg" xmlns:xlink="http://www.w3.org/1999/xlink" width="156" zoomAndPan="magnify" viewBox="0 0 116.88 33.749998" height="45" preserveAspectRatio="xMidYMid meet" version="1.0"><defs><g/></defs><g fill="#4743c9" fill-opacity="1"><g transform="translate(26.906156, 22.870554)"><g><path d="M 8.125 -1.03125 C 7.914062 -0.613281 7.550781 -0.28125 7.03125 -0.03125 C 6.519531 0.207031 5.953125 0.328125 5.328125 0.328125 C 4.421875 0.328125 3.601562 0.101562 2.875 -0.34375 C 2.15625 -0.789062 1.59375 -1.398438 1.1875 -2.171875 C 0.78125 -2.941406 0.578125 -3.800781 0.578125 -4.75 C 0.578125 -5.675781 0.785156 -6.523438 1.203125 -7.296875 C 1.617188 -8.078125 2.1875 -8.691406 2.90625 -9.140625 C 3.632812 -9.585938 4.441406 -9.8125 5.328125 -9.8125 C 5.921875 -9.8125 6.46875 -9.691406 6.96875 -9.453125 C 7.46875 -9.222656 7.851562 -8.898438 8.125 -8.484375 L 8.15625 -8.484375 L 8.15625 -9.484375 L 10.984375 -9.484375 L 10.984375 0 L 8.15625 0 L 8.15625 -1.03125 Z M 8.15625 -4.75 C 8.15625 -5.1875 8.046875 -5.585938 7.828125 -5.953125 C 7.609375 -6.328125 7.3125 -6.617188 6.9375 -6.828125 C 6.570312 -7.046875 6.175781 -7.15625 5.75 -7.15625 C 5.320312 -7.15625 4.925781 -7.046875 4.5625 -6.828125 C 4.207031 -6.617188 3.925781 -6.328125 3.71875 -5.953125 C 3.519531 -5.578125 3.421875 -5.164062 3.421875 -4.71875 C 3.421875 -4.28125 3.523438 -3.878906 3.734375 -3.515625 C 3.941406 -3.148438 4.222656 -2.859375 4.578125 -2.640625 C 4.941406 -2.429688 5.34375 -2.328125 5.78125 -2.328125 C 6.207031 -2.328125 6.601562 -2.429688 6.96875 -2.640625 C 7.332031 -2.859375 7.617188 -3.148438 7.828125 -3.515625 C 8.046875 -3.890625 8.15625 -4.300781 8.15625 -4.75 Z M 8.15625 -4.75 "/></g></g></g><g fill="#4743c9" fill-opacity="1"><g transform="translate(38.602395, 22.870554)"><g><path d="M 4.1875 -7.53125 C 3.945312 -7.53125 3.75 -7.46875 3.59375 -7.34375 C 3.445312 -7.226562 3.375 -7.082031 3.375 -6.90625 C 3.375 -6.65625 3.5 -6.445312 3.75 -6.28125 C 4.007812 -6.125 4.472656 -5.960938 5.140625 -5.796875 C 6.234375 -5.515625 7.003906 -5.140625 7.453125 -4.671875 C 7.910156 -4.210938 8.140625 -3.625 8.140625 -2.90625 C 8.140625 -2.257812 7.96875 -1.691406 7.625 -1.203125 C 7.28125 -0.722656 6.8125 -0.347656 6.21875 -0.078125 C 5.632812 0.191406 4.984375 0.328125 4.265625 0.328125 C 3.203125 0.328125 2.316406 0.0390625 1.609375 -0.53125 C 0.910156 -1.101562 0.507812 -1.867188 0.40625 -2.828125 L 3.234375 -2.828125 C 3.273438 -2.535156 3.390625 -2.316406 3.578125 -2.171875 C 3.765625 -2.023438 4.007812 -1.953125 4.3125 -1.953125 C 4.570312 -1.953125 4.800781 -2.019531 5 -2.15625 C 5.195312 -2.289062 5.296875 -2.46875 5.296875 -2.6875 C 5.296875 -2.957031 5.175781 -3.175781 4.9375 -3.34375 C 4.707031 -3.519531 4.25 -3.71875 3.5625 -3.9375 C 2.425781 -4.269531 1.632812 -4.664062 1.1875 -5.125 C 0.75 -5.582031 0.53125 -6.113281 0.53125 -6.71875 C 0.53125 -7.320312 0.703125 -7.859375 1.046875 -8.328125 C 1.390625 -8.804688 1.84375 -9.171875 2.40625 -9.421875 C 2.96875 -9.679688 3.566406 -9.8125 4.203125 -9.8125 C 5.242188 -9.8125 6.09375 -9.539062 6.75 -9 C 7.414062 -8.46875 7.78125 -7.742188 7.84375 -6.828125 L 5.0625 -6.828125 C 5.050781 -7.296875 4.757812 -7.53125 4.1875 -7.53125 Z M 4.1875 -7.53125 "/></g></g></g><g fill="#4743c9" fill-opacity="1"><g transform="translate(46.793149, 22.870554)"><g><path d="M 5.453125 -7.140625 C 4.390625 -7.140625 3.859375 -6.535156 3.859375 -5.328125 L 3.859375 0 L 1.03125 0 L 1.03125 -12.65625 L 3.859375 -12.65625 L 3.859375 -8.578125 C 4.066406 -8.960938 4.390625 -9.265625 4.828125 -9.484375 C 5.265625 -9.703125 5.765625 -9.8125 6.328125 -9.8125 C 7.421875 -9.8125 8.273438 -9.476562 8.890625 -8.8125 C 9.503906 -8.144531 9.8125 -7.195312 9.8125 -5.96875 L 9.8125 0 L 6.96875 0 L 6.96875 -5.21875 C 6.96875 -6.5 6.460938 -7.140625 5.453125 -7.140625 Z M 5.453125 -7.140625 "/></g></g></g><g fill="#76b5ff" fill-opacity="1"><g transform="translate(57.267193, 22.870554)"><g><path d="M 8.046875 -12.65625 L 8.046875 -9.8125 L 4.234375 -9.8125 L 4.234375 -7.65625 L 7.921875 -7.65625 L 7.921875 -4.828125 L 4.234375 -4.828125 L 4.234375 0 L 1.140625 0 L 1.140625 -12.65625 Z M 8.046875 -12.65625 "/></g></g></g><g fill="#76b5ff" fill-opacity="1"><g transform="translate(65.577647, 22.870554)"><g><path d="M 3.671875 -9.484375 L 3.671875 -8.484375 L 3.703125 -8.484375 C 3.941406 -8.972656 4.253906 -9.316406 4.640625 -9.515625 C 5.035156 -9.710938 5.515625 -9.8125 6.078125 -9.8125 L 6.078125 -6.953125 C 5.273438 -6.941406 4.703125 -6.789062 4.359375 -6.5 C 4.015625 -6.21875 3.84375 -5.796875 3.84375 -5.234375 L 3.84375 0 L 1.015625 0 L 1.015625 -9.484375 Z M 3.671875 -9.484375 "/></g></g></g><g fill="#76b5ff" fill-opacity="1"><g transform="translate(71.442816, 22.870554)"><g><path d="M 5.53125 -2.078125 C 5.914062 -2.078125 6.238281 -2.148438 6.5 -2.296875 C 6.769531 -2.441406 7.023438 -2.664062 7.265625 -2.96875 L 10.171875 -2.96875 C 9.710938 -1.9375 9.078125 -1.128906 8.265625 -0.546875 C 7.453125 0.0234375 6.539062 0.3125 5.53125 0.3125 C 4.632812 0.3125 3.800781 0.0859375 3.03125 -0.359375 C 2.257812 -0.804688 1.644531 -1.410156 1.1875 -2.171875 C 0.738281 -2.941406 0.515625 -3.789062 0.515625 -4.71875 C 0.515625 -5.613281 0.734375 -6.453125 1.171875 -7.234375 C 1.617188 -8.015625 2.222656 -8.640625 2.984375 -9.109375 C 3.742188 -9.578125 4.578125 -9.8125 5.484375 -9.8125 C 6.421875 -9.8125 7.269531 -9.582031 8.03125 -9.125 C 8.789062 -8.664062 9.390625 -8.039062 9.828125 -7.25 C 10.273438 -6.46875 10.5 -5.59375 10.5 -4.625 C 10.5 -4.351562 10.472656 -4.101562 10.421875 -3.875 L 3.3125 -3.875 C 3.394531 -3.34375 3.640625 -2.910156 4.046875 -2.578125 C 4.460938 -2.242188 4.957031 -2.078125 5.53125 -2.078125 Z M 5.484375 -7.421875 C 4.960938 -7.421875 4.503906 -7.273438 4.109375 -6.984375 C 3.710938 -6.691406 3.457031 -6.296875 3.34375 -5.796875 L 7.65625 -5.796875 C 7.539062 -6.285156 7.285156 -6.675781 6.890625 -6.96875 C 6.503906 -7.269531 6.035156 -7.421875 5.484375 -7.421875 Z M 5.484375 -7.421875 "/></g></g></g><g fill="#76b5ff" fill-opacity="1"><g transform="translate(82.147263, 22.870554)"><g><path d="M 5.53125 -2.078125 C 5.914062 -2.078125 6.238281 -2.148438 6.5 -2.296875 C 6.769531 -2.441406 7.023438 -2.664062 7.265625 -2.96875 L 10.171875 -2.96875 C 9.710938 -1.9375 9.078125 -1.128906 8.265625 -0.546875 C 7.453125 0.0234375 6.539062 0.3125 5.53125 0.3125 C 4.632812 0.3125 3.800781 0.0859375 3.03125 -0.359375 C 2.257812 -0.804688 1.644531 -1.410156 1.1875 -2.171875 C 0.738281 -2.941406 0.515625 -3.789062 0.515625 -4.71875 C 0.515625 -5.613281 0.734375 -6.453125 1.171875 -7.234375 C 1.617188 -8.015625 2.222656 -8.640625 2.984375 -9.109375 C 3.742188 -9.578125 4.578125 -9.8125 5.484375 -9.8125 C 6.421875 -9.8125 7.269531 -9.582031 8.03125 -9.125 C 8.789062 -8.664062 9.390625 -8.039062 9.828125 -7.25 C 10.273438 -6.46875 10.5 -5.59375 10.5 -4.625 C 10.5 -4.351562 10.472656 -4.101562 10.421875 -3.875 L 3.3125 -3.875 C 3.394531 -3.34375 3.640625 -2.910156 4.046875 -2.578125 C 4.460938 -2.242188 4.957031 -2.078125 5.53125 -2.078125 Z M 5.484375 -7.421875 C 4.960938 -7.421875 4.503906 -7.273438 4.109375 -6.984375 C 3.710938 -6.691406 3.457031 -6.296875 3.34375 -5.796875 L 7.65625 -5.796875 C 7.539062 -6.285156 7.285156 -6.675781 6.890625 -6.96875 C 6.503906 -7.269531 6.035156 -7.421875 5.484375 -7.421875 Z M 5.484375 -7.421875 "/></g></g></g><g fill="#000000" fill-opacity="1"><g transform="translate(92.862893, 22.870554)"><g><path d="M 0.25 -2.21875 L 0.25 -4.578125 L 5.921875 -12.65625 L 8.921875 -12.65625 L 8.921875 -4.75 L 10.328125 -4.75 L 10.328125 -2.21875 L 8.921875 -2.21875 L 8.921875 0 L 5.828125 0 L 5.828125 -2.21875 Z M 3.5 -4.75 L 6.03125 -4.75 L 6.03125 -8.71875 L 6 -8.71875 Z M 3.5 -4.75 "/></g></g></g><g fill="#000000" fill-opacity="1"><g transform="translate(103.088542, 22.870554)"><g><path d="M 10.8125 -4.90625 C 10.8125 -3.582031 10.601562 -2.585938 10.1875 -1.921875 C 9.769531 -1.234375 9.207031 -0.703125 8.5 -0.328125 C 7.789062 0.046875 6.960938 0.234375 6.015625 0.234375 C 4.941406 0.234375 4.039062 0.0234375 3.3125 -0.390625 C 2.539062 -0.847656 1.976562 -1.414062 1.625 -2.09375 C 1.28125 -2.769531 1.109375 -3.703125 1.109375 -4.890625 L 1.109375 -12.65625 L 4.34375 -12.65625 L 4.34375 -4.9375 C 4.34375 -4.144531 4.472656 -3.554688 4.734375 -3.171875 C 4.992188 -2.785156 5.410156 -2.59375 5.984375 -2.59375 C 6.554688 -2.59375 6.96875 -2.765625 7.21875 -3.109375 C 7.46875 -3.453125 7.59375 -4.054688 7.59375 -4.921875 L 7.59375 -12.65625 L 10.8125 -12.65625 Z M 10.8125 -4.90625 "/></g></g></g><g fill="#4743c9" fill-opacity="1"><g transform="translate(0.931491, 25.65959)"><g><path d="M 12.6875 -17.609375 C 11.550781 -17.609375 10.53125 -17.3125 9.625 -16.71875 C 8.71875 -16.132812 8.015625 -15.347656 7.515625 -14.359375 C 7.015625 -13.367188 6.765625 -12.296875 6.765625 -11.140625 C 6.765625 -9.941406 7.019531 -8.835938 7.53125 -7.828125 C 8.039062 -6.816406 8.75 -6.015625 9.65625 -5.421875 C 10.5625 -4.835938 11.582031 -4.546875 12.71875 -4.546875 C 13.863281 -4.546875 14.894531 -4.863281 15.8125 -5.5 C 16.726562 -6.144531 17.472656 -7.078125 18.046875 -8.296875 L 23.984375 -8.296875 C 23.523438 -6.535156 22.742188 -5 21.640625 -3.6875 C 20.546875 -2.382812 19.226562 -1.375 17.6875 -0.65625 C 16.15625 0.0625 14.519531 0.421875 12.78125 0.421875 C 11.207031 0.421875 9.71875 0.144531 8.3125 -0.40625 C 6.90625 -0.96875 5.640625 -1.800781 4.515625 -2.90625 C 3.335938 -4.039062 2.472656 -5.3125 1.921875 -6.71875 C 1.378906 -8.125 1.109375 -9.6875 1.109375 -11.40625 C 1.109375 -13.34375 1.613281 -15.164062 2.625 -16.875 C 3.644531 -18.59375 5.035156 -19.972656 6.796875 -21.015625 C 8.554688 -22.054688 10.460938 -22.578125 12.515625 -22.578125 C 14.046875 -22.578125 15.441406 -22.351562 16.703125 -21.90625 C 17.960938 -21.46875 19.140625 -20.78125 20.234375 -19.84375 C 22.347656 -18.03125 23.597656 -15.992188 23.984375 -13.734375 L 18.046875 -13.734375 C 17.566406 -14.929688 16.84375 -15.875 15.875 -16.5625 C 14.914062 -17.257812 13.851562 -17.609375 12.6875 -17.609375 Z M 12.6875 -17.609375 "/></g></g></g></svg>