<svg width="606" height="479" viewBox="0 0 606 479" fill="none" xmlns="http://www.w3.org/2000/svg">
<g clip-path="url(#clip0)">
<path d="M749.179 457.598C756.893 322.269 725.218 274.468 694.722 255.874C659.325 234.377 633.276 256.781 588.894 234.74C519.098 200.001 542.061 123.538 477.802 71.5648C402.379 10.6121 259.157 25.4875 212.415 88.1635C191.721 115.828 203.52 134.694 178.379 162.177C136.266 208.255 76.4541 184.491 36.9729 212.79C4.66176 235.919 -17.6656 296.691 18.8206 457.598H749.179Z" fill="#FFF5E8"/>
<path d="M308.44 189.661H185.005C182.736 189.661 180.92 187.847 180.92 185.579V26.3948C180.92 24.1272 182.736 22.3131 185.005 22.3131H308.44C310.709 22.3131 312.525 24.1272 312.525 26.3948V185.579C312.525 187.847 310.709 189.661 308.44 189.661Z" fill="#1EEFB0"/>
<path d="M232.564 86.7125H212.143V160.092H232.564V86.7125Z" fill="white"/>
<path d="M262.878 98.3225H242.457V160.092H262.878V98.3225Z" fill="white"/>
<path d="M293.191 71.021H272.77V160.092H293.191V71.021Z" fill="white"/>
<path d="M284.304 51.5199L251.721 86.7128L221.134 73.6515" stroke="black" stroke-miterlimit="10"/>
<path d="M284.301 56.5084C287.058 56.5084 289.293 54.2749 289.293 51.5197C289.293 48.7645 287.058 46.531 284.301 46.531C281.544 46.531 279.309 48.7645 279.309 51.5197C279.309 54.2749 281.544 56.5084 284.301 56.5084Z" fill="#384257"/>
<path d="M251.719 89.3431C254.476 89.3431 256.711 87.1096 256.711 84.3544C256.711 81.5992 254.476 79.3657 251.719 79.3657C248.962 79.3657 246.728 81.5992 246.728 84.3544C246.728 87.1096 248.962 89.3431 251.719 89.3431Z" fill="#384257"/>
<path d="M222.312 78.64C225.069 78.64 227.304 76.4064 227.304 73.6513C227.304 70.8961 225.069 68.6626 222.312 68.6626C219.555 68.6626 217.32 70.8961 217.32 73.6513C217.32 76.4064 219.555 78.64 222.312 78.64Z" fill="#384257"/>
<path d="M208.876 189.298H268.416C275.314 189.298 280.941 183.675 280.941 176.781C280.941 169.888 275.314 164.264 268.416 164.264H208.876C201.978 164.264 196.351 169.888 196.351 176.781C196.351 183.675 201.978 189.298 208.876 189.298Z" fill="#85D0D6"/>
<path d="M207.606 189.117H222.491C223.217 189.117 223.761 188.573 223.761 187.847V178.051C223.761 177.326 223.217 176.782 222.491 176.782H215.411C210.419 176.782 206.426 180.773 206.426 185.761V187.847C206.335 188.482 206.88 189.117 207.606 189.117Z" fill="#384257"/>
<path d="M283.304 176.782C287.842 176.782 291.472 180.863 291.472 185.852L293.378 258.596C293.378 258.868 293.288 259.14 293.197 259.322L285.936 269.753C285.391 270.478 284.393 270.478 283.848 269.753L277.404 260.501C276.86 259.775 275.861 259.775 275.317 260.501L268.873 269.753C268.328 270.478 267.33 270.478 266.785 269.753L260.341 260.501C259.797 259.775 258.798 259.775 258.254 260.501L251.81 269.753C251.265 270.478 250.267 270.478 249.722 269.753L243.278 260.501C242.733 259.775 241.735 259.775 241.19 260.501L234.746 269.753C234.202 270.478 233.113 270.478 232.659 269.753L225.216 258.505C225.126 258.324 225.035 258.052 225.035 257.87L223.129 186.033C223.129 180.954 219.408 176.872 214.87 176.872H283.304V176.782Z" fill="white"/>
<path d="M283.304 176.782C287.842 176.782 291.472 180.863 291.472 185.852L293.378 258.596C293.378 258.868 293.288 259.14 293.197 259.322L285.936 269.753C285.391 270.478 284.393 270.478 283.848 269.753L277.404 260.501C276.86 259.775 275.861 259.775 275.317 260.501L268.873 269.753C268.328 270.478 267.33 270.478 266.785 269.753L260.341 260.501C259.797 259.775 258.798 259.775 258.254 260.501L251.81 269.753C251.265 270.478 250.267 270.478 249.722 269.753L243.278 260.501C242.733 259.775 241.735 259.775 241.19 260.501L234.746 269.753C234.202 270.478 233.113 270.478 232.659 269.753L225.216 258.505C225.126 258.324 225.035 258.052 225.035 257.87L223.129 186.033C223.129 180.954 219.408 176.872 214.87 176.872H283.304V176.782Z" stroke="#384257" stroke-miterlimit="10"/>
<path d="M180.921 40.9983H312.526" stroke="#384257" stroke-miterlimit="10"/>
<path d="M195.717 35.4652C197.321 35.4652 198.621 34.1657 198.621 32.5627C198.621 30.9597 197.321 29.6602 195.717 29.6602C194.113 29.6602 192.812 30.9597 192.812 32.5627C192.812 34.1657 194.113 35.4652 195.717 35.4652Z" fill="white" stroke="#384257" stroke-miterlimit="10"/>
<path d="M206.425 35.4653C208.029 35.4653 209.329 34.1658 209.329 32.5628C209.329 30.9598 208.029 29.6603 206.425 29.6603C204.821 29.6603 203.521 30.9598 203.521 32.5628C203.521 34.1658 204.821 35.4653 206.425 35.4653Z" fill="white" stroke="#384257" stroke-miterlimit="10"/>
<path d="M217.138 35.4653C218.742 35.4653 220.042 34.1658 220.042 32.5628C220.042 30.9598 218.742 29.6603 217.138 29.6603C215.534 29.6603 214.233 30.9598 214.233 32.5628C214.233 34.1658 215.534 35.4653 217.138 35.4653Z" fill="white" stroke="#384257" stroke-miterlimit="10"/>
<path d="M245.088 197.386V195.027C245.088 191.49 242.184 188.587 238.644 188.587C235.105 188.587 232.2 191.49 232.2 195.027C232.2 197.204 233.108 199.29 234.56 200.742C235.558 201.739 236.829 202.284 238.19 202.465L239.461 202.646C242.365 203.009 244.816 205.368 245.088 208.27C245.088 208.451 245.088 208.633 245.088 208.814C245.088 212.352 242.184 215.254 238.644 215.254C235.105 215.254 232.2 212.352 232.2 208.814" stroke="#4E5FF9" stroke-miterlimit="10"/>
<path d="M238.643 183.221V218.505" stroke="#4E5FF9" stroke-miterlimit="10"/>
<path d="M257.434 195.375H283.12" stroke="#384257" stroke-miterlimit="10"/>
<path d="M257.434 208.618H283.12" stroke="#384257" stroke-miterlimit="10"/>
<path d="M285.206 228.95H234.016V233.848H285.206V228.95Z" fill="#4E5FF9"/>
<path d="M256.525 238.55H234.016V254.514H256.525V238.55Z" stroke="#384257" stroke-miterlimit="10"/>
<path d="M285.206 238.55H263.423V254.514H285.206V238.55Z" stroke="#384257" stroke-miterlimit="10"/>
<path d="M6.74902 456.329H749.178" stroke="black" stroke-miterlimit="10"/>
<path d="M464.914 162.722H341.387C339.209 162.722 337.394 160.908 337.394 158.731V3.99095C337.394 1.81407 339.209 0 341.387 0H464.914C467.092 0 468.907 1.81407 468.907 3.99095V158.731C468.907 160.908 467.183 162.722 464.914 162.722Z" fill="#1EEFB0"/>
<path d="M453.569 67.03H353.731C350.192 67.03 347.378 64.2182 347.378 60.6808V12.9708C347.378 9.43339 350.192 6.62158 353.731 6.62158H453.569C457.109 6.62158 459.922 9.43339 459.922 12.9708V60.6808C459.922 64.1275 457.018 67.03 453.569 67.03Z" stroke="white" stroke-miterlimit="10"/>
<path d="M394.936 154.105H354.91C351.371 154.105 348.557 151.293 348.557 147.756V80.0005C348.557 76.4631 351.371 73.6512 354.91 73.6512H394.936C398.476 73.6512 401.29 76.4631 401.29 80.0005V147.756C401.29 151.203 398.385 154.105 394.936 154.105Z" stroke="white" stroke-miterlimit="10"/>
<path d="M453.571 154.105H414.18C410.641 154.105 407.827 151.293 407.827 147.756V80.0005C407.827 76.4631 410.641 73.6512 414.18 73.6512H453.571C457.111 73.6512 459.924 76.4631 459.924 80.0005V147.756C459.924 151.203 457.02 154.105 453.571 154.105Z" stroke="white" stroke-miterlimit="10"/>
<path d="M145.617 434.56V456.329H160.048H189.364V451.431C189.364 448.075 186.913 445.263 183.464 444.628L166.31 438.369L145.617 434.56Z" fill="#4E5FF9"/>
<path d="M189.363 451.34V451.431V456.329H145.616V451.34H189.363Z" fill="#384257"/>
<path d="M171.664 428.211H138.899L121.382 234.015H154.147L171.664 428.211Z" fill="#384257"/>
<path d="M113.395 454.696H91.7939L86.439 450.252C86.439 450.252 92.52 438.823 93.6999 438.823H108.766C111.308 438.823 113.395 440.909 113.395 443.449V454.696Z" fill="#4E5FF9"/>
<path d="M117.844 455.331H85.5332V453.335C85.5332 446.805 90.7974 441.544 97.3322 441.544H105.955C112.489 441.544 117.754 446.805 117.754 453.335V455.331H117.844Z" fill="#4E5FF9"/>
<path d="M85.8047 451.159C85.3509 452.338 85.5324 453.426 85.5324 454.787V455.966H117.753V454.787C117.753 453.426 118.025 452.247 117.48 451.068L85.8047 451.159Z" fill="#384257"/>
<path d="M121.38 427.667H88.5244V234.015L129.004 244.083L121.38 427.667Z" fill="#384257"/>
<path d="M156.96 253.153H85.8027L86.9826 158.731C87.3457 152.2 97.3294 135.511 104.409 135.511H136.357C143.346 135.511 149.154 140.5 149.699 146.849L156.96 253.153Z" fill="#4E5FF9"/>
<path d="M167.487 197.824C161.679 197.824 156.142 195.103 152.693 190.296L116.389 135.511H142.256C146.249 135.511 149.97 137.234 152.512 140.318L165.944 156.101L178.833 132.881L205.97 147.937L183.643 188.391C180.557 193.924 175.021 197.461 168.667 197.824C168.304 197.824 167.941 197.824 167.487 197.824Z" fill="#4E5FF9"/>
<path d="M124.196 142.948H115.12C112.487 142.948 110.4 140.862 110.4 138.232V128.436H128.915V138.232C129.006 140.862 126.828 142.948 124.196 142.948Z" fill="white"/>
<path d="M129.007 128.345V135.511" stroke="#384257" stroke-miterlimit="10"/>
<path d="M110.4 135.511V120.817" stroke="#384257" stroke-miterlimit="10"/>
<path d="M110.4 120.817C107.858 117.551 106.406 113.47 106.406 109.025V87.5286H142.348V109.025C142.348 130.068 133.725 128.345 123.016 128.345H125.738" stroke="#384257" stroke-miterlimit="10" stroke-linecap="round" stroke-linejoin="round"/>
<path d="M106.408 99.0481C106.408 99.0481 110.765 98.8667 110.856 103.493H112.943C112.943 103.493 110.583 91.6104 117.663 90.0685C119.024 89.7964 120.476 89.9778 121.747 90.522C126.92 92.6989 142.168 98.2318 146.888 92.1547C152.334 85.0798 143.439 77.9142 134.817 76.1002C131.005 75.2838 123.381 75.1931 115.938 75.3745C112.399 75.4652 109.222 76.463 105.773 77.0979C99.1474 78.4584 96.8783 82.8122 96.5153 89.1614C96.243 94.785 96.7876 100.409 98.0582 105.76C99.3289 110.93 101.779 115.012 106.499 117.914L109.676 119.819" fill="black"/>
<path d="M107.587 109.661C106.044 109.661 103.593 106.849 103.684 104.037C103.775 101.588 106.225 99.0482 107.587 99.0482C110.491 99.0482 112.851 101.406 112.851 104.309" fill="white"/>
<path d="M107.587 109.661C106.044 109.661 103.593 106.849 103.684 104.037C103.775 101.588 106.225 99.0482 107.587 99.0482C110.491 99.0482 112.851 101.406 112.851 104.309" stroke="#384257" stroke-miterlimit="10" stroke-linecap="round" stroke-linejoin="round"/>
<path d="M142.257 213.153C135.904 215.874 130.276 213.969 123.651 213.697C124.105 213.697 124.831 201.996 124.922 200.908C125.012 198.64 125.375 198.459 127.1 197.189C128.824 195.829 130.549 194.468 132.273 193.198C132.727 192.835 133.362 192.473 133.816 192.926C134.088 193.198 133.998 193.742 133.907 194.196C133.453 195.738 133.09 197.28 132.636 198.822C136.539 198.278 140.442 197.824 144.345 197.28C145.706 197.098 147.158 196.736 148.52 196.373C149.336 196.191 150.244 196.101 150.698 196.736C150.879 197.098 150.879 197.461 150.879 197.824C150.879 200.273 150.062 204.355 148.701 205.262C148.973 204.718 149.699 204.264 149.881 204.808C150.063 205.443 149.609 207.62 149.246 208.164C148.066 210.25 146.251 211.43 142.257 213.153Z" fill="white" stroke="#384257" stroke-width="0.8187" stroke-miterlimit="10"/>
<path d="M125.739 222.133H75.0945C70.3749 222.133 65.6553 220.772 61.8433 217.96C53.947 212.155 51.2242 202.087 54.3101 193.38L78.7249 146.667C82.3554 139.774 89.4348 135.511 97.1495 135.511H109.402L87.9826 191.112H125.649V222.133H125.739Z" fill="#4E5FF9"/>
<path d="M61.752 217.96C65.5639 220.772 70.2835 222.133 75.0031 222.133H125.648V191.021H87.982L93.7908 169.253" stroke="#384257" stroke-miterlimit="10"/>
<path d="M150.88 165.352L152.967 196.463" stroke="#384257" stroke-width="0.8594" stroke-miterlimit="10" stroke-linecap="round" stroke-linejoin="round"/>
<path d="M166.037 156.101L169.395 159.729" stroke="#384257" stroke-width="0.8594" stroke-miterlimit="10" stroke-linecap="round" stroke-linejoin="round"/>
<path d="M177.476 135.511L200.438 148.209" stroke="#384257" stroke-width="0.8594" stroke-miterlimit="10" stroke-linecap="round" stroke-linejoin="round"/>
<path d="M121.382 191.112V216.872" stroke="#384257" stroke-width="0.8594" stroke-miterlimit="10" stroke-linecap="round" stroke-linejoin="round"/>
<path d="M85.8027 249.525H149.699" stroke="#384257" stroke-width="0.8594" stroke-miterlimit="10" stroke-linecap="round" stroke-linejoin="round"/>
<path d="M99.4158 253.153C99.4158 253.153 101.957 267.031 88.5244 267.212" stroke="#85D0D6" stroke-miterlimit="10"/>
<path d="M149.701 253.153C149.701 253.153 150.245 264.944 156.962 264.31" stroke="#85D0D6" stroke-miterlimit="10"/>
<path d="M53.5859 457.145H18.6428L13.6509 422.133H56.7626L53.5859 457.145Z" fill="white"/>
<path d="M53.5859 457.145H18.6428L13.6509 422.133H56.7626L53.5859 457.145Z" stroke="#384257" stroke-miterlimit="10"/>
<path d="M47.7758 363.902C47.1405 352.201 61.2085 342.586 58.3041 331.339C56.3074 323.629 47.1405 319.094 46.1421 311.294C45.416 305.489 48.9557 297.053 45.5975 291.793C41.241 284.899 26.6284 287.983 23.6332 294.786C21.455 299.774 25.1762 305.942 24.4501 311.294C23.4517 319.185 14.194 323.72 12.288 331.339C9.38368 342.677 23.4517 352.292 22.8164 363.902C21.9088 379.866 -4.23056 390.296 11.8342 407.439C13.0141 408.709 14.2848 409.798 15.6462 410.705C26.3561 417.78 44.0546 417.87 54.8552 410.705C56.2166 409.798 57.5781 408.709 58.6672 407.439C74.9135 390.296 48.6834 379.866 47.7758 363.902Z" fill="#85D0D6"/>
<path d="M35.249 415.966V422.133" stroke="black" stroke-miterlimit="10"/>
<path d="M35.249 309.842V415.693" stroke="white" stroke-miterlimit="10"/>
<path d="M35.1592 342.042C36.6114 342.224 37.9728 341.498 39.2434 340.772C42.2386 338.868 45.0522 336.6 47.412 333.97" stroke="white" stroke-miterlimit="10"/>
<path d="M34.8881 325.534C32.6191 324.537 30.5316 323.176 28.8071 321.453" stroke="white" stroke-miterlimit="10"/>
<path d="M35.1569 360.999C31.4356 359.639 28.8036 356.373 26.4438 353.289C25.1731 351.657 23.8117 349.933 22.541 348.301" stroke="white" stroke-miterlimit="10"/>
<path d="M35.5254 376.872C37.8852 377.235 40.3357 376.419 41.9695 374.696C43.1494 373.516 43.9662 371.793 45.5091 371.067" stroke="white" stroke-miterlimit="10"/>
<path d="M34.9777 397.825C31.438 396.918 28.1706 395.285 25.4477 392.836C22.7249 390.387 20.7281 387.212 20.0928 383.675" stroke="white" stroke-miterlimit="10"/>
<path d="M35.6123 410.796C39.9689 408.891 44.2346 406.895 48.1374 404.174C52.0401 401.453 55.4891 398.006 57.7581 393.925" stroke="white" stroke-miterlimit="10"/>
<path d="M508.663 284.536C505.668 284.536 503.036 285.897 501.311 288.074H476.079C474.355 285.897 471.723 284.536 468.728 284.536C463.464 284.536 459.289 288.8 459.289 293.97C459.289 299.23 463.554 303.403 468.728 303.403C470.634 303.403 472.358 302.859 473.81 301.861V414.696H467.82V430.569H487.697H510.387V414.696H503.58V301.952C505.032 302.859 506.848 303.494 508.663 303.494C513.836 303.494 518.102 299.321 518.102 294.06C518.102 288.8 513.836 284.536 508.663 284.536Z" fill="white"/>
<path d="M577.64 284.536C574.645 284.536 572.013 285.897 570.288 288.074H545.057C543.332 285.897 540.7 284.536 537.705 284.536C532.441 284.536 528.266 288.799 528.266 293.97C528.266 299.23 532.531 303.403 537.705 303.403C539.611 303.403 541.335 302.858 542.787 301.861V414.696H536.706V430.569H556.583H579.364V414.696H572.557V301.951C574.009 302.858 575.825 303.493 577.64 303.493C582.813 303.493 587.079 299.321 587.079 294.06C587.079 288.799 582.813 284.536 577.64 284.536Z" fill="white"/>
<path d="M649.525 284.536C646.53 284.536 643.898 285.897 642.173 288.074H616.942C615.217 285.897 612.585 284.536 609.59 284.536C604.326 284.536 600.151 288.799 600.151 293.97C600.151 299.23 604.417 303.403 609.59 303.403C611.496 303.403 613.221 302.858 614.673 301.861V414.696H608.682V430.569H628.559H651.34V414.696H644.533V301.951C645.985 302.858 647.801 303.493 649.616 303.493C654.789 303.493 659.055 299.321 659.055 294.06C658.964 288.799 654.698 284.536 649.525 284.536Z" fill="white"/>
<path d="M462.284 430.206V438.642V447.712H735.657V438.642V430.206H462.284Z" fill="#384257"/>
<path d="M740.014 280.092L600.06 169.525C598.789 168.527 596.883 168.527 595.612 169.525L453.661 281.725C452.754 282.45 452.3 283.448 452.3 284.537C452.3 286.532 453.934 288.165 455.93 288.165H737.836C739.832 288.165 741.466 286.532 741.466 284.537V282.995C741.375 281.815 740.831 280.818 740.014 280.092Z" fill="#384257"/>
<path d="M709.334 272.382L597.606 184.037L484.336 273.561V277.734H709.334V272.382Z" fill="white" stroke="#384257" stroke-width="0.963" stroke-miterlimit="10"/>
<path d="M450.302 441.181V448.347V456.147H745.368V448.347V441.181H450.302Z" fill="white" stroke="#384257" stroke-width="0.963" stroke-miterlimit="10"/>
<path d="M553.772 304.31V414.243" stroke="black" stroke-width="0.963" stroke-miterlimit="10"/>
<path d="M564.029 304.31V414.243" stroke="black" stroke-width="0.963" stroke-miterlimit="10"/>
<path d="M537.889 414.787H572.56" stroke="black" stroke-width="0.963" stroke-miterlimit="10"/>
<path d="M486.423 304.31V414.243" stroke="black" stroke-width="0.963" stroke-miterlimit="10"/>
<path d="M496.68 304.31V414.243" stroke="black" stroke-width="0.963" stroke-miterlimit="10"/>
<path d="M470.541 414.787H505.211" stroke="black" stroke-width="0.963" stroke-miterlimit="10"/>
<path d="M455.838 288.074H703.163" stroke="black" stroke-width="0.963" stroke-miterlimit="10"/>
<path d="M252.893 269.752V307.122C252.893 312.473 257.249 316.827 262.604 316.827H372.607" stroke="black" stroke-miterlimit="10"/>
<path d="M417.99 457.69H322.328C320.24 457.69 318.516 455.966 318.516 453.88V387.848C318.516 385.762 320.24 384.038 322.328 384.038H417.99C420.078 384.038 421.802 385.762 421.802 387.848V453.88C421.802 455.966 420.169 457.69 417.99 457.69Z" fill="white"/>
<path d="M417.99 457.69H322.328C320.24 457.69 318.516 455.966 318.516 453.88V387.848C318.516 385.762 320.24 384.038 322.328 384.038H417.99C420.078 384.038 421.802 385.762 421.802 387.848V453.88C421.802 455.966 420.169 457.69 417.99 457.69Z" stroke="#384257" stroke-miterlimit="10"/>
<path d="M403.198 355.194H338.212V272.291C338.212 264.854 344.203 258.867 351.645 258.867H389.856C397.298 258.867 403.288 264.854 403.288 272.291V355.194H403.198Z" fill="#4E5FF9"/>
<path d="M344.563 365.081L315.428 350.659C308.258 347.122 304.991 338.505 308.077 331.067L334.216 272.11C337.756 264.128 345.652 258.958 354.365 258.958H367.525L337.12 331.339L356.452 340.954L344.563 365.081Z" fill="#4E5FF9"/>
<path d="M411.818 345.489L371.61 258.867H389.581C395.299 258.867 400.472 261.951 403.195 267.03L430.333 322.178C433.237 328.074 430.968 335.239 425.16 338.414L411.818 345.489Z" fill="#4E5FF9"/>
<path d="M334.941 472.292C334.488 473.834 334.215 475.467 334.215 477.099V478.551H365.8V477.099C365.8 475.376 365.528 473.834 365.074 472.292H334.941Z" fill="#384257"/>
<path d="M403.739 472.837C404.284 474.379 404.556 476.102 404.556 477.826V479.277H372.063V477.826C372.063 476.102 372.336 474.469 372.88 472.837H403.739Z" fill="#384257"/>
<path d="M403.104 360.364H340.024V385.943H403.104V360.364Z" fill="#384257"/>
<path d="M410.998 370.704H331.128C329.403 370.704 327.951 369.435 327.77 367.711L320.418 308.663C320.146 306.668 321.779 304.854 323.776 304.854H417.533C419.53 304.854 421.163 306.668 420.891 308.663L414.356 367.711C414.265 369.435 412.813 370.704 410.998 370.704Z" fill="#CBF3F4"/>
<g opacity="0.24">
<g opacity="0.24">
<g opacity="0.24">
<path opacity="0.24" d="M395.751 284.266H395.933C396.024 284.175 396.024 284.175 396.024 284.084C396.024 283.993 396.024 283.993 395.933 283.902C395.842 283.811 395.751 283.811 395.751 283.811C395.66 283.811 395.66 283.811 395.569 283.902V284.084L395.751 284.266Z" fill="#4E5FF9"/>
</g>
</g>
</g>
<path d="M365.982 478.551H342.475L334.941 472.292L342.475 458.142H365.982V478.551Z" fill="white" stroke="#384257" stroke-width="0.8187" stroke-miterlimit="10"/>
<path d="M370.157 458.143H337.664L329.132 378.233C328.134 368.709 335.576 360.364 345.197 360.364C353.457 360.364 360.354 366.623 361.262 374.786L370.157 458.143Z" fill="#384257"/>
<path d="M361.261 374.786L370.156 458.143H337.663" stroke="#384257" stroke-width="0.8423" stroke-miterlimit="10"/>
<path d="M365.8 478.551H334.215V477.1C334.215 468.392 341.295 461.408 349.917 461.408H350.008C358.721 461.408 365.71 468.483 365.71 477.1V478.551H365.8Z" fill="#4E5FF9"/>
<path d="M334.488 474.287C334.306 475.195 334.215 476.192 334.215 477.099V478.551H365.8V477.099C365.8 476.102 365.71 475.195 365.528 474.287H334.488Z" fill="#384257"/>
<path d="M372.063 478.551H395.571L403.83 472.927L395.571 458.142H372.063V478.551Z" fill="white" stroke="#384257" stroke-width="0.8187" stroke-miterlimit="10"/>
<path d="M372.063 479.276H404.556V477.281C404.556 468.573 397.477 461.589 388.854 461.589H387.856C379.143 461.589 372.154 468.664 372.154 477.281V479.276H372.063Z" fill="#4E5FF9"/>
<path d="M350.008 461.408C358.721 461.408 365.8 468.483 365.8 477.1V478.551H334.215V477.1C334.215 471.385 337.21 466.397 341.839 463.675" stroke="#384257" stroke-width="0.8423" stroke-miterlimit="10" stroke-linecap="round" stroke-linejoin="round"/>
<path d="M370.702 458.143H403.194L411.726 378.233C412.724 368.709 405.282 360.364 395.661 360.364C387.402 360.364 380.504 366.623 379.596 374.786L370.702 458.143Z" fill="#384257"/>
<path d="M372.426 474.922C372.244 475.83 372.153 476.827 372.153 477.734V479.186H403.738V477.734C403.738 476.737 403.648 475.83 403.466 474.922H372.426Z" fill="#384257"/>
<path d="M395.661 360.364C387.401 360.364 380.504 366.623 379.596 374.786L373.243 434.288" stroke="#384257" stroke-width="0.8423" stroke-miterlimit="10"/>
<path d="M376.148 466.759C373.606 469.571 372.063 473.29 372.063 477.281V479.276H404.556V477.281C404.556 468.573 397.477 461.589 388.854 461.589H387.856C385.224 461.589 382.773 462.224 380.595 463.403" stroke="#384257" stroke-width="0.8423" stroke-miterlimit="10"/>
<path d="M388.492 228.844C389.037 233.742 389.582 238.822 388.22 243.629C386.859 248.436 383.047 252.79 378.055 253.334C378.146 255.783 378.146 258.232 378.236 260.772C383.137 259.321 388.311 259.049 393.303 260.046C395.299 260.409 397.659 260.953 399.111 259.502C400.291 258.414 400.201 256.509 399.656 254.967C399.111 253.425 398.204 252.064 397.841 250.522C397.115 247.801 398.204 244.627 400.473 242.903C402.016 241.724 404.103 241.089 405.011 239.366C405.556 238.368 405.556 237.189 405.646 236.01C405.737 233.017 405.737 229.933 405.011 227.121C404.194 224.218 402.833 220.5 400.019 219.321C400.019 206.713 389.763 196.463 377.147 196.463H364.168C351.552 196.463 341.296 206.713 341.296 219.321C341.296 222.223 340.933 225.307 338.574 227.03C337.666 227.665 336.577 227.937 335.488 228.3C331.222 229.751 327.864 233.47 326.775 237.824C325.413 243.357 327.319 249.797 324.142 254.423C322.872 256.237 320.875 257.507 319.241 259.049C313.796 264.128 311.799 272.563 314.431 279.548C310.347 283.266 309.893 290.432 313.614 294.695C315.792 297.144 319.06 298.323 322.237 299.23C325.867 300.319 329.497 301.226 333.309 301.316C334.762 301.316 336.305 301.226 337.575 300.681C338.846 300.137 339.753 299.139 340.843 298.323C343.565 296.056 346.833 294.423 350.282 293.425C353.277 294.514 356 293.879 358.36 291.793C360.447 289.978 361.536 287.167 362.081 284.446C362.625 281.906 362.807 279.275 362.535 276.736C362.444 275.103 362.172 273.198 363.351 271.928C364.35 270.931 365.984 270.84 367.073 269.933C368.253 269.026 368.525 267.121 367.708 265.851" fill="black"/>
<path d="M371.429 266.214H369.432C365.801 266.214 362.806 263.221 362.806 259.593V244.083H378.145V259.593C378.054 263.221 375.059 266.214 371.429 266.214Z" fill="white" stroke="#384257" stroke-width="0.8423" stroke-miterlimit="10"/>
<path d="M353.365 238.368C356.172 238.368 358.448 236.094 358.448 233.289C358.448 230.484 356.172 228.209 353.365 228.209C350.558 228.209 348.282 230.484 348.282 233.289C348.282 236.094 350.558 238.368 353.365 238.368Z" fill="white" stroke="#384257" stroke-width="0.8423" stroke-miterlimit="10"/>
<path d="M371.612 255.058C361.538 255.058 353.369 246.894 353.369 236.826V210.069H389.855V236.826C389.855 246.894 381.687 255.058 371.612 255.058Z" fill="white" stroke="#384257" stroke-width="0.8423" stroke-miterlimit="10"/>
<path d="M363.077 210.069C363.077 210.069 363.985 224.944 352.095 229.116C340.205 233.198 353.366 205.987 353.366 205.987L363.077 210.069Z" fill="black"/>
<path d="M363.077 210.069C363.077 210.069 367.978 231.112 392.211 230.84L391.303 207.076L363.077 205.987V210.069Z" fill="black"/>
<path d="M346.47 291.429L342.749 304.853" stroke="#384257" stroke-width="0.8423" stroke-miterlimit="10"/>
<path d="M392.213 291.429L396.842 304.853" stroke="#384257" stroke-width="0.8423" stroke-miterlimit="10"/>
<path d="M468.909 82.5402H519.735C522.367 82.5402 524.545 84.717 524.545 87.3474V107.484C524.545 110.114 526.724 112.291 529.356 112.291H564.662C571.015 112.291 576.28 117.461 576.28 123.901V187.665" stroke="black" stroke-miterlimit="10"/>
<path d="M468.908 85.7147C470.663 85.7147 472.085 84.2934 472.085 82.5401C472.085 80.7868 470.663 79.3655 468.908 79.3655C467.154 79.3655 465.731 80.7868 465.731 82.5401C465.731 84.2934 467.154 85.7147 468.908 85.7147Z" fill="white" stroke="#384257" stroke-miterlimit="10"/>
<path d="M576.187 193.924C577.942 193.924 579.364 192.502 579.364 190.749C579.364 188.996 577.942 187.574 576.187 187.574C574.433 187.574 573.011 188.996 573.011 190.749C573.011 192.502 574.433 193.924 576.187 193.924Z" fill="white" stroke="#384257" stroke-miterlimit="10"/>
<path d="M326.048 354.831L320.239 310.387C319.876 307.938 321.873 305.761 324.323 304.854H411.727" stroke="#384257" stroke-width="0.8423" stroke-miterlimit="10"/>
<path d="M205.246 131.61C204.974 131.157 204.429 130.885 203.885 130.794L202.614 131.701C202.614 131.61 202.614 131.52 202.523 131.338C202.977 130.975 203.431 130.613 203.885 130.159C204.429 129.706 204.883 129.252 205.155 128.617C205.428 127.982 205.337 127.166 204.974 126.531C204.611 125.896 203.885 125.533 203.159 125.443C202.16 125.352 201.253 125.987 200.436 126.531C200.254 126.712 199.982 126.803 199.8 126.984C199.71 126.894 199.619 126.803 199.619 126.712C199.982 126.35 200.436 126.077 200.799 125.715C201.343 125.261 201.797 124.808 202.069 124.173C202.342 123.538 202.251 122.721 201.888 122.086C201.525 121.452 200.799 121.089 200.073 120.998C199.074 120.907 198.167 121.542 197.35 122.086C197.078 122.268 196.805 122.54 196.533 122.721C197.622 121.179 198.893 118.64 199.891 117.007C200.708 115.647 201.797 114.105 202.16 112.563C202.342 112.018 202.342 111.383 201.979 110.93C201.525 110.114 200.345 109.569 199.437 110.023C198.53 110.476 197.894 111.565 197.259 112.2C196.533 113.016 191.813 118.64 190.724 120.454L190.996 120.545C190.906 120.635 190.724 120.726 190.633 120.726C189.817 120.182 188.909 120 188.001 120.182C186.821 120.454 186.005 121.452 185.279 122.359C184.28 123.719 183.736 125.624 183.917 127.257C184.099 128.345 184.552 129.433 184.552 130.522C184.552 131.066 184.371 131.52 184.189 131.973L184.734 131.157C184.552 131.52 184.371 131.792 184.099 132.155C184.099 132.064 184.189 132.064 184.189 131.973L183.463 133.152C183.191 133.606 182.919 133.969 182.556 134.422C185.914 136.236 194.536 141.316 194.627 140.771C194.627 140.681 194.808 140.862 194.899 140.862C194.99 140.862 195.172 140.771 195.172 140.59C195.444 140.227 195.716 139.864 195.988 139.502L199.619 136.327C198.711 136.78 197.894 137.415 197.078 138.05C197.713 137.143 198.439 136.236 199.074 135.42C199.347 136.055 199.982 136.508 200.708 136.327C201.525 136.055 202.251 135.692 202.886 135.148C203.431 134.785 203.885 134.331 204.338 133.878C204.701 133.515 205.065 133.152 205.246 132.699C205.609 132.699 205.518 132.064 205.246 131.61ZM202.523 131.792L202.251 131.973C202.342 131.973 202.432 131.882 202.523 131.792Z" fill="white"/>
<path d="M187.456 127.348C188 128.073 188.182 129.071 188.545 129.887C188.908 130.795 189.543 131.611 190.451 131.702C190.905 131.792 191.268 131.611 191.631 131.429C192.72 130.885 193.355 129.706 193.537 128.527C193.718 127.348 193.446 126.078 193.083 124.989C192.72 123.81 192.175 122.631 191.268 121.724C190.36 120.817 189.09 120.273 187.91 120.545C186.73 120.817 185.913 121.815 185.187 122.722C184.188 124.082 183.644 125.987 183.825 127.62C184.007 128.708 184.461 129.797 184.461 130.885C184.37 132.336 183.553 133.516 182.646 134.695" stroke="#384257" stroke-width="0.8594" stroke-miterlimit="10" stroke-linecap="round" stroke-linejoin="round"/>
<path d="M190.631 120.817C191.72 119.003 196.44 113.379 197.166 112.563C197.801 111.837 198.436 110.749 199.344 110.386C200.252 109.933 201.431 110.386 201.885 111.293C202.158 111.837 202.158 112.382 202.067 112.926C201.704 114.468 200.615 116.01 199.798 117.37C198.89 119.003 197.529 121.633 196.44 123.266" stroke="#384257" stroke-width="0.8594" stroke-miterlimit="10" stroke-linecap="round" stroke-linejoin="round"/>
<path d="M194.898 141.044C196.078 139.23 197.802 137.869 199.708 136.781" stroke="#384257" stroke-width="0.8594" stroke-miterlimit="10" stroke-linecap="round" stroke-linejoin="round"/>
<path d="M197.349 122.45C198.166 121.815 199.074 121.27 200.072 121.361C200.798 121.452 201.433 121.815 201.887 122.45C202.25 123.084 202.341 123.81 202.069 124.536C201.796 125.171 201.343 125.624 200.798 126.078C200.163 126.622 199.527 127.166 198.801 127.71C197.984 128.345 197.168 129.252 196.169 129.615C194.445 130.159 193.809 127.892 194.082 126.622C194.535 124.808 195.988 123.447 197.349 122.45Z" stroke="#384257" stroke-width="0.8594" stroke-miterlimit="10" stroke-linecap="round" stroke-linejoin="round"/>
<path d="M200.434 126.713C201.25 126.078 202.158 125.533 203.156 125.624C203.883 125.715 204.518 126.078 204.972 126.713C205.335 127.348 205.426 128.073 205.153 128.799C204.881 129.434 204.427 129.887 203.883 130.341C203.247 130.885 202.612 131.429 201.886 131.973C201.069 132.608 199.617 133.878 198.618 133.425C196.894 132.699 196.259 131.701 196.531 130.431C197.075 128.708 199.163 127.71 200.434 126.713Z" stroke="#384257" stroke-width="0.8594" stroke-miterlimit="10" stroke-linecap="round" stroke-linejoin="round"/>
<path d="M203.886 130.794C204.43 130.794 204.975 131.157 205.247 131.611C205.519 132.064 205.61 132.699 205.429 133.153C205.247 133.606 204.884 133.969 204.521 134.332C204.067 134.785 203.523 135.148 203.069 135.602C202.433 136.146 201.707 136.509 200.891 136.781C199.529 137.234 198.803 135.42 198.985 134.423" stroke="#384257" stroke-width="0.8594" stroke-miterlimit="10" stroke-linecap="round" stroke-linejoin="round"/>
<path d="M192.629 131.248C193.446 131.157 194.172 131.702 194.626 132.427C195.079 133.153 195.17 133.969 195.261 134.695" stroke="#384257" stroke-width="0.8594" stroke-miterlimit="10" stroke-linecap="round" stroke-linejoin="round"/>
<path d="M149.699 204.445C148.156 205.806 146.341 206.804 144.344 207.257" stroke="#384257" stroke-width="0.8594" stroke-miterlimit="10" stroke-linecap="round" stroke-linejoin="round"/>
<path d="M150.789 198.549C150.517 199.456 149.337 200.454 148.52 201.18C147.159 202.359 144.799 202.813 143.165 203.357" stroke="#384257" stroke-width="0.8594" stroke-miterlimit="10" stroke-linecap="round" stroke-linejoin="round"/>
<path d="M197.624 106.486L195.627 96.9622" stroke="black" stroke-miterlimit="10"/>
<path d="M204.521 109.116L214.323 92.9708" stroke="black" stroke-miterlimit="10"/>
<path d="M93.5176 438.914V427.666H110.853L110.399 438.914" fill="white"/>
<path d="M93.5176 438.914V427.666H110.853L110.399 438.914" stroke="#384257" stroke-width="0.7955" stroke-miterlimit="10"/>
<path d="M146.523 434.741V428.211H162.86L163.042 437.825" fill="white"/>
<path d="M146.523 434.741V428.211H162.86L163.042 437.825" stroke="#384257" stroke-width="0.8187" stroke-miterlimit="10"/>
<path d="M95.1499 443.268C99.4157 440.819 105.043 440.909 109.309 443.449" stroke="#028090" stroke-miterlimit="10" stroke-linecap="round" stroke-linejoin="round"/>
<path d="M95.1499 446.261C99.4157 443.812 105.043 443.902 109.309 446.442" stroke="#028090" stroke-miterlimit="10" stroke-linecap="round" stroke-linejoin="round"/>
<path d="M164.312 444.991C165.31 442.27 167.216 439.821 169.576 438.188" stroke="#028090" stroke-miterlimit="10" stroke-linecap="round" stroke-linejoin="round"/>
<path d="M168.305 446.17C169.394 443.268 171.391 440.819 174.023 439.095" stroke="#028090" stroke-miterlimit="10" stroke-linecap="round" stroke-linejoin="round"/>
<path d="M172.935 446.986C174.024 444.084 176.021 441.635 178.653 439.911" stroke="#028090" stroke-miterlimit="10" stroke-linecap="round" stroke-linejoin="round"/>
<path d="M536.612 223.947C538.367 223.947 539.789 222.525 539.789 220.772C539.789 219.019 538.367 217.598 536.612 217.598C534.858 217.598 533.436 219.019 533.436 220.772C533.436 222.525 534.858 223.947 536.612 223.947Z" fill="white" stroke="#384257" stroke-miterlimit="10"/>
<path d="M306.989 178.867C308.743 178.867 310.165 177.446 310.165 175.693C310.165 173.939 308.743 172.518 306.989 172.518C305.234 172.518 303.812 173.939 303.812 175.693C303.812 177.446 305.234 178.867 306.989 178.867Z" fill="white" stroke="#384257" stroke-miterlimit="10"/>
<path d="M310.164 175.42H462.915C467.272 175.42 470.902 178.957 470.902 183.402V212.79C470.902 217.144 474.442 220.772 478.889 220.772H533.618" stroke="black" stroke-miterlimit="10"/>
<path d="M364.531 237.008C365.534 237.008 366.346 236.033 366.346 234.831C366.346 233.629 365.534 232.654 364.531 232.654C363.529 232.654 362.716 233.629 362.716 234.831C362.716 236.033 363.529 237.008 364.531 237.008Z" fill="#384257"/>
<path d="M381.867 237.008C382.869 237.008 383.682 236.033 383.682 234.831C383.682 233.629 382.869 232.654 381.867 232.654C380.864 232.654 380.051 233.629 380.051 234.831C380.051 236.033 380.864 237.008 381.867 237.008Z" fill="#384257"/>
<path d="M361.084 228.391C363.171 226.758 366.348 226.395 368.436 227.121" stroke="#384257" stroke-width="0.8423" stroke-miterlimit="10" stroke-linecap="round" stroke-linejoin="round"/>
<path d="M373.878 235.013C373.878 239.185 376.601 243.085 376.601 243.085C376.51 243.629 375.058 244.083 373.696 244.355" stroke="#384257" stroke-width="0.8423" stroke-miterlimit="10" stroke-linecap="round" stroke-linejoin="round"/>
<path d="M366.348 245.443C366.801 246.532 367.618 247.439 368.617 247.983C369.615 248.527 370.886 248.618 371.975 248.346" stroke="#384257" stroke-width="0.8423" stroke-miterlimit="10" stroke-linecap="round" stroke-linejoin="round"/>
<path d="M604.412 127.619C613.986 127.619 621.748 119.863 621.748 110.295C621.748 100.727 613.986 92.9707 604.412 92.9707C594.838 92.9707 587.077 100.727 587.077 110.295C587.077 119.863 594.838 127.619 604.412 127.619Z" stroke="black" stroke-miterlimit="10"/>
<path d="M601.326 127.62C591.705 127.62 583.99 119.819 583.99 110.295C583.99 100.771 591.796 92.9708 601.326 92.9708" stroke="black" stroke-miterlimit="10"/>
<path d="M609.677 106.757V105.215C609.677 102.948 607.317 101.134 604.413 101.134C601.508 101.134 599.148 102.948 599.148 105.215C599.148 106.576 599.875 107.846 601.054 108.844C601.871 109.478 602.96 109.841 604.05 109.932L605.048 110.023C607.498 110.295 609.495 111.746 609.677 113.56C609.677 113.651 609.677 113.742 609.677 113.923C609.677 116.191 607.317 118.005 604.413 118.005C601.508 118.005 599.148 116.191 599.148 113.923" stroke="black" stroke-miterlimit="10"/>
<path d="M604.412 98.2316V120.454" stroke="black" stroke-miterlimit="10"/>
<path d="M582.176 139.774C584.03 139.774 585.534 138.271 585.534 136.418C585.534 134.564 584.03 133.062 582.176 133.062C580.321 133.062 578.817 134.564 578.817 136.418C578.817 138.271 580.321 139.774 582.176 139.774Z" stroke="black" stroke-miterlimit="10"/>
<path d="M372.067 16.4175C374.79 15.1476 377.876 14.5127 381.143 14.5127C393.305 14.5127 403.198 24.3994 403.198 36.5536" stroke="#120D34" stroke-miterlimit="10" stroke-linecap="round" stroke-linejoin="round"/>
<path d="M395.482 53.2432C391.579 56.5992 386.587 58.5947 381.051 58.5947C368.889 58.5947 358.996 48.708 358.996 36.5537C358.996 32.3814 360.176 28.5718 362.081 25.2158" stroke="#120D34" stroke-miterlimit="10" stroke-linecap="round" stroke-linejoin="round"/>
<path d="M400.383 47.6195L393.304 50.2499C393.031 50.3406 392.94 50.7034 393.213 50.8848L399.021 55.6921C399.203 55.8735 399.566 55.7828 399.657 55.4199L400.927 47.9823C400.927 47.8009 400.655 47.5288 400.383 47.6195Z" fill="white"/>
<path d="M366.167 20.8619L373.609 19.6827C373.882 19.592 374.063 19.3199 373.882 19.0478L369.162 13.2428C368.981 12.9707 368.618 13.0614 368.527 13.3335L365.804 20.3177C365.713 20.6805 365.895 20.9526 366.167 20.8619Z" fill="white"/>
<path d="M377.693 36.7349C377.421 36.2814 377.24 36.0093 376.695 36.1C375.697 36.1907 374.698 36.1 373.791 36.2814C371.522 36.7349 370.251 38.3676 370.251 40.6352C370.251 42.4493 370.251 44.2633 370.251 46.0774C370.251 46.8937 370.523 47.2565 371.34 47.3472C375.243 47.9822 387.133 47.9822 391.035 47.3472C391.761 47.2565 392.124 46.8937 392.124 46.0774C392.124 44.2633 392.124 42.4493 392.124 40.6352C392.124 38.3676 390.854 36.7349 388.585 36.2814C387.677 36.1 386.679 36.1907 385.68 36.1C385.136 36.1 384.954 36.2814 384.682 36.7349C384.047 37.5513 381.868 40.3631 381.324 41.2701C381.142 41.2701 378.51 37.8234 377.693 36.7349Z" fill="#384257"/>
<path d="M381.049 35.5558C377.6 35.5558 374.696 32.744 374.696 29.2065C374.696 25.6691 377.6 22.7666 381.231 22.7666C384.68 22.7666 387.584 25.6691 387.584 29.1158C387.493 32.6533 384.589 35.5558 381.049 35.5558Z" fill="#384257"/>
<path d="M385.044 41.905H388.13" stroke="#120D34" stroke-width="2" stroke-miterlimit="10" stroke-linecap="round" stroke-linejoin="round"/>
<path d="M393.306 115.919V84.3542C393.306 83.3565 392.489 82.5402 391.491 82.5402H358.998C358 82.5402 357.183 83.3565 357.183 84.3542V122.722C357.183 123.72 358 124.536 358.998 124.536H384.684C385.138 124.536 385.591 124.354 385.955 123.992L392.762 117.189C393.125 116.917 393.306 116.463 393.306 115.919Z" fill="white"/>
<path d="M385.41 124.626V116.735H393.306" fill="#120D34"/>
<path d="M382.052 97.416L378.422 91.8831H373.157L369.436 97.416C367.893 99.6836 367.893 102.677 369.527 104.763C370.979 106.577 373.248 107.756 375.699 107.756C377.968 107.756 379.965 106.849 381.417 105.307C383.504 103.221 383.686 99.865 382.052 97.416Z" fill="#384257"/>
<path d="M373.248 91.1572L371.705 86.6221C371.705 86.6221 373.793 85.8964 374.7 86.9849C375.517 87.9826 378.966 87.7105 379.42 86.4407L377.877 91.2479H373.248V91.1572Z" fill="#384257"/>
<path d="M361.812 111.928H378.512" stroke="#120D34" stroke-miterlimit="10"/>
<path d="M361.812 117.098H372.068" stroke="#120D34" stroke-miterlimit="10"/>
<path d="M455.927 96.8712C455.655 96.2363 455.201 95.6013 454.657 95.0571C454.385 94.785 453.931 94.785 453.658 95.0571C453.386 95.3292 453.386 95.7828 453.658 96.0549C454.021 96.4177 454.385 96.8712 454.657 97.4154C454.838 97.7782 454.929 98.2317 454.929 98.6853C454.929 99.7737 454.385 100.681 453.568 101.316C453.386 101.406 453.205 101.497 453.023 101.588C451.299 94.9664 444.764 89.887 436.686 89.0707C435.325 89.887 433.6 89.887 432.239 89.0707C431.24 89.1614 430.333 89.3428 429.425 89.5242C426.702 87.8916 423.344 87.8008 420.53 89.3428C420.258 89.5242 419.986 89.7963 419.895 90.1591C419.804 90.522 419.895 90.8848 420.077 91.1569L421.529 93.2431C419.26 94.9664 417.535 97.234 416.446 99.9551H415.448C414.268 99.9551 413.27 100.953 413.27 102.132V106.486C413.27 107.665 414.268 108.663 415.448 108.663H415.902C416.628 111.202 417.989 113.47 419.804 115.375L420.984 122.087C421.075 122.812 421.71 123.266 422.436 123.266H425.069C425.795 123.266 426.339 122.722 426.521 122.087L426.884 119.819C431.694 121.543 436.958 121.543 441.678 119.819L442.041 122.087C442.132 122.812 442.767 123.266 443.493 123.266H446.125C446.851 123.266 447.396 122.722 447.577 122.087L448.757 115.375C451.571 112.654 453.114 108.935 453.205 105.035C453.205 104.4 453.114 103.765 453.023 103.039C454.838 102.404 456.109 100.59 456.109 98.5946C456.291 98.141 456.109 97.5061 455.927 96.8712Z" fill="#384257"/>
<path d="M438.775 92.5178C438.684 92.5178 438.684 92.5178 438.593 92.5178C436.052 91.9736 433.42 91.8829 430.879 92.3364C430.606 92.4271 430.334 92.3364 430.153 92.0643C429.971 91.7922 429.88 91.6108 429.971 91.3387C430.062 91.0666 430.243 90.8852 430.516 90.8852C433.239 90.341 436.143 90.4317 438.866 91.0666C439.229 91.1573 439.501 91.5201 439.41 91.8829C439.41 92.2457 439.138 92.5178 438.775 92.5178Z" fill="#120D34"/>
<path d="M439.863 86.4405C439.863 88.2546 438.955 89.8872 437.321 90.7943C435.688 91.792 433.691 91.792 432.148 90.7943C430.061 89.5244 429.153 86.894 429.97 84.6264C430.877 82.2681 433.237 80.9076 435.688 81.3611C438.048 81.8146 439.863 83.9915 439.863 86.4405Z" fill="white"/>
<path opacity="0.41" d="M393.214 135.057H358.271C357.272 135.057 356.546 134.241 356.546 133.334C356.546 132.336 357.363 131.611 358.271 131.611H393.214C394.212 131.611 394.939 132.427 394.939 133.334C394.939 134.241 394.122 135.057 393.214 135.057Z" fill="#384257"/>
<path opacity="0.41" d="M379.328 143.855H358.271C357.272 143.855 356.546 143.039 356.546 142.132C356.546 141.134 357.363 140.409 358.271 140.409H379.328C380.326 140.409 381.052 141.225 381.052 142.132C381.052 143.039 380.326 143.855 379.328 143.855Z" fill="#384257"/>
<path opacity="0.41" d="M436.324 135.057H416.357C415.358 135.057 414.632 134.241 414.632 133.334C414.632 132.336 415.449 131.611 416.357 131.611H436.324C437.323 131.611 438.049 132.427 438.049 133.334C438.14 134.241 437.323 135.057 436.324 135.057Z" fill="#384257"/>
<path opacity="0.41" d="M446.49 143.855H425.433C424.435 143.855 423.709 143.039 423.709 142.132C423.709 141.134 424.526 140.409 425.433 140.409H446.49C447.489 140.409 448.215 141.225 448.215 142.132C448.215 143.039 447.398 143.855 446.49 143.855Z" fill="#384257"/>
<path opacity="0.41" d="M429.06 26.3946H418.804C418.26 26.3946 417.896 26.0318 417.896 25.4876V17.2336C417.896 16.6894 418.26 16.3265 418.804 16.3265H429.06C429.605 16.3265 429.968 16.6894 429.968 17.2336V25.4876C429.968 26.0318 429.605 26.3946 429.06 26.3946Z" fill="#384257"/>
<path opacity="0.41" d="M429.06 41.8143H418.804C418.26 41.8143 417.896 41.4515 417.896 40.9073V32.6533C417.896 32.109 418.26 31.7462 418.804 31.7462H429.06C429.605 31.7462 429.968 32.109 429.968 32.6533V40.9073C429.968 41.4515 429.605 41.8143 429.06 41.8143Z" fill="#384257"/>
<path opacity="0.41" d="M429.06 57.3247H418.804C418.26 57.3247 417.896 56.9618 417.896 56.4176V48.1636C417.896 47.6194 418.26 47.2566 418.804 47.2566H429.06C429.605 47.2566 429.968 47.6194 429.968 48.1636V56.4176C429.968 56.8711 429.605 57.3247 429.06 57.3247Z" fill="#384257"/>
<path d="M435.961 20.6804H452.299" stroke="black" stroke-miterlimit="10"/>
<path d="M435.961 36.5535H452.299" stroke="black" stroke-miterlimit="10"/>
<path d="M435.961 52.4266H452.299" stroke="black" stroke-miterlimit="10"/>
<path d="M126.192 109.116C127.195 109.116 128.007 108.142 128.007 106.939C128.007 105.737 127.195 104.762 126.192 104.762C125.19 104.762 124.377 105.737 124.377 106.939C124.377 108.142 125.19 109.116 126.192 109.116Z" fill="#384257"/>
<path d="M139.806 108.663C140.809 108.663 141.622 107.688 141.622 106.486C141.622 105.284 140.809 104.309 139.806 104.309C138.804 104.309 137.991 105.284 137.991 106.486C137.991 107.688 138.804 108.663 139.806 108.663Z" fill="#384257"/>
<path d="M135.629 107.211C136.355 110.114 137.988 112.381 137.988 112.381C137.898 112.926 136.445 113.379 135.084 113.651" stroke="#384257" stroke-width="0.8423" stroke-miterlimit="10" stroke-linecap="round" stroke-linejoin="round"/>
<path d="M121.016 101.497C122.922 99.8643 125.191 98.5944 127.732 98.7758" stroke="#384257" stroke-width="0.8423" stroke-miterlimit="10" stroke-linecap="round" stroke-linejoin="round"/>
<path d="M136.993 99.2294C138.536 98.9573 140.169 99.3201 141.531 100.227" stroke="#384257" stroke-width="0.8423" stroke-miterlimit="10" stroke-linecap="round" stroke-linejoin="round"/>
<path d="M136.9 118.187C136.446 120.908 133.995 122.722 131.454 122.268C128.913 121.815 127.279 119.275 127.733 116.554" fill="#384257"/>
</g>
<defs>
<clipPath id="clip0">
<rect width="606" height="479" fill="white"/>
</clipPath>
</defs>
</svg>
